HIERARCHY
ROOT Hips
{
	OFFSET 0.000000 0.000000 0.000000
	CHANNELS 6 Xposition Yposition Zposition Zrotation Yrotation Xrotation 
	JOINT LHipJoint
	{
		OFFSET 0.000000 0.000000 0.000000
		CHANNELS 3 Zrotation Yrotation Xrotation
		JOINT LeftUpLeg
		{
			OFFSET 1.363060 -1.794630 0.839290
			CHANNELS 3 Zrotation Yrotation Xrotation
			JOINT LeftLeg
			{
				OFFSET 2.448110 -6.726130 0.000000
				CHANNELS 3 Zrotation Yrotation Xrotation
				JOINT LeftFoot
				{
					OFFSET 2.562200 -7.039590 0.000000
					CHANNELS 3 Zrotation Yrotation Xrotation
					JOINT LeftToeBase
					{
						OFFSET 0.157640 -0.433110 2.322550
						CHANNELS 3 Zrotation Yrotation Xrotation
						End Site
						{
							OFFSET 0.000000 0.000000 0.000000
						}
					}
				}
			}
		}
	}
	JOINT RHipJoint
	{
		OFFSET 0.000000 0.000000 0.000000
		CHANNELS 3 Zrotation Yrotation Xrotation
		JOINT RightUpLeg
		{
			OFFSET -1.305520 -1.794630 0.839290
			CHANNELS 3 Zrotation Yrotation Xrotation
			JOINT RightLeg
			{
				OFFSET -2.542530 -6.985550 0.000000
				CHANNELS 3 Zrotation Yrotation Xrotation
				JOINT RightFoot
				{
					OFFSET -2.568260 -7.056230 0.000000
					CHANNELS 3 Zrotation Yrotation Xrotation
					JOINT RightToeBase
					{
						OFFSET -0.164730 -0.452590 2.363150
						CHANNELS 3 Zrotation Yrotation Xrotation
						End Site
						{
							OFFSET 0.000000 0.000000 0.000000
						}
					}
				}
			}
		}
	}
	JOINT LowerBack
	{
		OFFSET 0.000000 0.000000 0.000000
		CHANNELS 3 Zrotation Yrotation Xrotation
		JOINT Spine
		{
			OFFSET 0.028270 2.035590 -0.193380
			CHANNELS 3 Zrotation Yrotation Xrotation
			JOINT Spine1
			{
				OFFSET 0.056720 2.048850 -0.042750
				CHANNELS 3 Zrotation Yrotation Xrotation
				JOINT Neck
				{
					OFFSET 0.000000 0.000000 0.000000
					CHANNELS 3 Zrotation Yrotation Xrotation
					JOINT Neck1
					{
						OFFSET -0.054170 1.746240 0.172020
						CHANNELS 3 Zrotation Yrotation Xrotation
						JOINT Head
						{
							OFFSET 0.104070 1.761360 -0.123970
							CHANNELS 3 Zrotation Yrotation Xrotation
							End Site
							{
								OFFSET 0.000000 0.000000 0.000000
							}
						}
					}
				}
				JOINT LeftShoulder
				{
					OFFSET 0.000000 0.000000 0.000000
					CHANNELS 3 Zrotation Yrotation Xrotation
					JOINT LeftArm
					{
						OFFSET 3.362410 1.200890 -0.311210
						CHANNELS 3 Zrotation Yrotation Xrotation
						JOINT LeftForeArm
						{
							OFFSET 4.983000 -0.000000 -0.000000
							CHANNELS 3 Zrotation Yrotation Xrotation
							JOINT LeftHand
							{
								OFFSET 3.483560 -0.000000 -0.000000
								CHANNELS 3 Zrotation Yrotation Xrotation
								JOINT LeftFingerBase
								{
									OFFSET 0.000000 0.000000 0.000000
									CHANNELS 3 Zrotation Yrotation Xrotation
									JOINT LeftHandIndex1
									{
										OFFSET 0.715260 -0.000000 -0.000000
										CHANNELS 3 Zrotation Yrotation Xrotation
										End Site
										{
											OFFSET 0.000000 0.000000 0.000000
										}
									}
								}
								JOINT LThumb
								{
									OFFSET 0.000000 0.000000 0.000000
									CHANNELS 3 Zrotation Yrotation Xrotation
									End Site
									{
										OFFSET 0.000000 0.000000 0.000000
									}
								}
							}
						}
					}
				}
				JOINT RightShoulder
				{
					OFFSET 0.000000 0.000000 0.000000
					CHANNELS 3 Zrotation Yrotation Xrotation
					JOINT RightArm
					{
						OFFSET -3.136600 1.374050 -0.404650
						CHANNELS 3 Zrotation Yrotation Xrotation
						JOINT RightForeArm
						{
							OFFSET -5.241900 -0.000000 -0.000000
							CHANNELS 3 Zrotation Yrotation Xrotation
							JOINT RightHand
							{
								OFFSET -3.444170 -0.000000 -0.000000
								CHANNELS 3 Zrotation Yrotation Xrotation
								JOINT RightFingerBase
								{
									OFFSET 0.000000 0.000000 0.000000
									CHANNELS 3 Zrotation Yrotation Xrotation
									JOINT RightHandIndex1
									{
										OFFSET -0.622530 -0.000000 -0.000000
										CHANNELS 3 Zrotation Yrotation Xrotation
										End Site
										{
											OFFSET 0.000000 0.000000 0.000000
										}
									}
								}
								JOINT RThumb
								{
									OFFSET 0.000000 0.000000 0.000000
									CHANNELS 3 Zrotation Yrotation Xrotation
									End Site
									{
										OFFSET 0.000000 0.000000 0.000000
									}
								}
							}
						}
					}
				}
			}
		}
	}
}
MOTION
Frames: 8
Frame Time: 0.008333
-36.674896 17.383337 -2.035786 -163.965078 77.179755 -148.923067 16.979418 4.035863 -2.108715 -45.020535 -41.722896 31.009806 -12.674533 -4.798635 -7.134707 12.803330 2.448596 -67.657299 5.601700 -14.030900 -43.361500 -19.357168 -2.153525 -3.420050 29.087985 17.202293 -19.093383 12.591679 -7.948114 10.922035 1.203462 -18.600631 -18.844401 -0.273400 3.363300 -9.292000 -1.348149 -0.931265 11.972718 2.817577 -1.062659 -4.849915 6.775096 0.307102 -14.773287 4.053428 5.573046 -24.885227 2.871992 8.397750 21.304638 -0.217700 4.356500 18.633200 9.505924 -7.289000 0.323915 -91.639000 5.860146 26.504348 23.614347 -37.476759 -8.436695 -0.209323 2.784969 4.978140 29.012303 34.433417 16.321900 -7.125000 0.000000 0.000000 -2.515700 64.690800 -1.199100 -9.246502 7.144292 1.979701 74.353993 -17.066325 34.337167 -20.414630 33.370042 -5.583980 0.962616 -2.757534 -20.513943 -22.878851 -26.014387 9.297400 7.125000 0.000000 0.000000 6.536800 -54.414700 -1.517100 
-36.742930 17.380720 -2.109162 -165.014768 77.252658 -150.044314 17.059346 3.951556 -2.118642 -45.558626 -41.758404 30.936416 -12.681021 -4.860627 -7.306396 12.876122 2.854733 -68.058011 5.872300 -14.303400 -44.467000 -19.253141 -2.071220 -3.473089 28.325075 16.969534 -19.652752 12.426468 -8.349363 11.744289 1.267423 -18.372605 -18.759054 -0.291600 3.472300 -9.596500 -1.506615 -0.956212 12.060951 2.743275 -1.121983 -4.825400 6.811560 0.261975 -14.665805 3.280606 4.688917 -25.080140 3.427178 7.267545 21.397714 0.154600 3.880000 18.615000 9.491091 -7.275818 0.285730 -92.185793 5.712674 25.683049 22.863260 -36.860274 -8.140294 -0.117217 2.817605 5.924474 29.282104 34.355260 16.415400 -7.125000 0.000000 0.000000 -2.162400 64.638700 -1.028000 -9.340821 7.177486 1.976903 74.539165 -17.117558 34.926627 -20.636187 33.642746 -5.641016 1.003334 -2.747370 -20.845414 -22.476469 -26.011894 9.128600 7.125000 0.000000 0.000000 6.928000 -54.337900 -1.595500 
-36.808456 17.369599 -2.180467 -166.079308 77.395363 -151.240426 17.192489 3.883503 -2.134952 -46.274358 -41.656120 31.045847 -12.707310 -4.990365 -7.542541 12.883552 3.212506 -68.198963 5.915900 -14.346300 -44.643200 -19.162921 -1.984229 -3.526403 27.578210 16.846978 -20.109480 12.263204 -8.725537 12.531248 1.302189 -18.086256 -19.005272 -0.331500 3.700100 -10.234400 -1.817481 -0.965140 12.245729 2.693857 -1.180808 -4.782046 6.898359 0.225563 -14.539362 2.693829 3.844642 -25.373141 3.902750 6.144165 21.488162 0.446900 3.422700 18.663200 9.385443 -7.257232 0.312573 -92.114637 6.479184 26.504462 23.527861 -37.482196 -8.445524 -0.163302 2.800941 4.901099 29.915653 35.411864 17.289200 -7.125000 0.000000 0.000000 -1.912800 65.914800 -0.965800 -9.404529 7.214109 1.960584 74.697861 -17.029362 35.423482 -20.866330 33.905327 -5.698816 1.030957 -2.733432 -20.688287 -21.947687 -25.973555 8.901100 7.125000 0.000000 0.000000 7.424100 -54.211500 -1.687800 
-36.866350 17.350955 -2.247193 -167.087680 77.590091 -152.408123 17.348588 3.827829 -2.155195 -47.040871 -41.448310 31.260228 -12.739254 -5.163662 -7.831910 12.890755 3.323312 -68.271899 5.835500 -14.267000 -44.317900 -19.095748 -1.900968 -3.577904 26.909562 16.727337 -20.649381 12.093281 -9.189723 13.477800 1.334804 -17.908322 -19.361726 -0.391800 4.019000 -11.130200 -2.197084 -0.956258 12.459311 2.638050 -1.227447 -4.747425 7.048518 0.210327 -14.477332 2.160858 3.038665 -25.626617 4.325394 5.077116 21.602939 0.710400 2.994100 18.763400 9.353298 -7.237095 0.297341 -92.386155 6.619963 26.143664 22.879038 -36.940391 -8.165029 -0.149412 2.832245 5.079419 29.563305 35.696077 17.176700 -7.125000 0.000000 0.000000 -2.539200 66.085900 -1.292300 -9.489714 7.254848 1.958264 74.833222 -16.912366 35.914055 -21.016282 34.069142 -5.705019 1.046269 -2.708262 -20.426571 -21.245101 -25.415062 8.421900 7.125000 0.000000 0.000000 7.915900 -53.537300 -1.670100 
-36.918793 17.329149 -2.308467 -167.703162 77.743142 -153.260684 17.471675 3.805542 -2.180370 -47.703092 -41.175983 31.576070 -12.752670 -5.315777 -8.102240 13.065817 2.640613 -68.680277 5.748800 -14.180400 -43.965100 -19.091004 -1.853303 -3.620969 26.489066 16.570969 -21.292602 11.923592 -9.775705 14.644286 1.465844 -18.299818 -18.938574 -0.562700 4.804700 -13.352400 -2.461649 -0.949878 12.753233 2.581751 -1.256148 -4.715372 7.153197 0.192232 -14.475459 1.619989 2.222539 -25.855796 4.734884 4.013689 21.739249 0.978100 2.567400 18.898900 9.314107 -7.231674 0.291963 -92.634856 6.948492 25.811928 22.365390 -36.468115 -7.893071 -0.169708 2.856074 5.351740 28.442569 35.275265 16.298000 -7.125000 0.000000 0.000000 -3.719200 65.343700 -1.829700 -9.570066 7.300112 1.957070 74.913902 -16.851367 36.401490 -21.122911 34.169447 -5.678542 1.056827 -2.672400 -20.209505 -20.428661 -24.516995 7.796600 7.125000 0.000000 0.000000 8.406600 -52.514200 -1.563700 
-36.967965 17.303964 -2.365816 -168.123304 77.921281 -153.910781 17.575223 3.764690 -2.201989 -48.212013 -40.956820 31.615641 -12.777503 -5.336071 -8.146078 13.194450 2.611133 -69.035633 5.828300 -14.259900 -44.288800 -19.107210 -1.808500 -3.680545 26.198925 16.288656 -22.067405 11.729333 -10.462755 16.007402 1.598619 -18.767694 -18.615145 -0.753100 5.542600 -15.462900 -2.717829 -0.942574 13.037741 2.532354 -1.284452 -4.678220 7.272025 0.174933 -14.460001 1.119797 1.431318 -26.060503 5.148323 2.968963 21.841904 1.245700 2.155300 19.021600 9.277687 -7.220525 0.288034 -92.859690 7.247530 25.432589 21.750890 -35.902049 -7.588517 -0.179812 2.878828 5.720173 27.407220 34.854172 15.490600 -7.125000 0.000000 0.000000 -4.757900 64.632300 -2.263200 -9.651297 7.345341 1.959527 74.985440 -16.730777 36.668168 -21.243375 34.291845 -5.673020 1.096861 -2.638646 -20.092032 -19.466397 -24.214537 7.338300 7.125000 0.000000 0.000000 9.219300 -52.075500 -1.617300 
-37.010814 17.279323 -2.418150 -168.143532 78.164022 -154.104252 17.684739 3.698070 -2.210447 -48.511097 -40.798748 31.337120 -12.851868 -5.284646 -8.011053 13.023138 4.437382 -68.817000 6.069700 -14.495600 -45.261000 -19.140865 -1.753358 -3.768889 26.106972 15.808625 -23.054846 11.512701 -11.256222 17.559718 1.653017 -19.021627 -18.930083 -0.779500 5.636900 -15.734500 -3.033612 -0.919856 13.217324 2.499484 -1.306384 -4.633735 7.480026 0.174408 -14.380604 0.725807 0.707865 -26.226324 5.583858 1.974579 21.904790 1.510700 1.783200 19.120800 9.282711 -7.190455 0.258040 -93.202160 7.098210 24.261408 20.386835 -34.681797 -7.045388 -0.132812 2.928944 6.812222 26.468387 34.932472 14.942100 -7.125000 0.000000 0.000000 -5.956900 64.433900 -2.807700 -9.742676 7.394617 1.975511 75.116329 -16.622143 36.646691 -21.411503 34.481481 -5.717662 1.120517 -2.622823 -19.735403 -18.853620 -24.172375 7.102800 7.125000 0.000000 0.000000 9.773300 -51.948300 -1.685300 
-37.042214 17.256318 -2.465687 -167.599267 78.386625 -153.751103 17.794497 3.663138 -2.207804 -48.703940 -40.594184 31.181878 -12.925467 -5.292289 -7.924788 12.718647 5.922561 -68.157643 6.128600 -14.551800 -45.495800 -19.161782 -1.695001 -3.873080 26.288997 15.086507 -24.207351 11.273489 -12.126667 19.275308 1.445400 -18.465170 -20.827364 -0.358900 3.848700 -10.651400 -3.243307 -0.914149 13.371159 2.494547 -1.330195 -4.586743 7.588658 0.156291 -14.258519 0.375748 0.013074 -26.432278 6.078086 1.012141 21.974575 1.812300 1.435000 19.232100 9.134866 -7.168409 0.326606 -92.602191 8.377040 25.750583 21.206271 -35.406409 -7.330288 -0.317061 2.891780 5.142849 25.571766 36.238311 14.975200 -7.125000 0.000000 0.000000 -7.878900 65.577300 -3.927200 -9.791900 7.451715 1.972435 75.362952 -16.636872 36.429148 -21.491724 34.602745 -5.759444 1.095344 -2.634905 -19.272415 -18.980105 -24.013878 7.099600 7.125000 0.000000 0.000000 9.594200 -51.804200 -1.619900 
